<mxfile host="Electron" agent="Mozilla/5.0 (Windows NT 10.0; Win64; x64) AppleWebKit/537.36 (KHTML, like Gecko) draw.io/24.7.17 Chrome/128.0.6613.36 Electron/32.0.1 Safari/537.36" version="24.7.17">
  <diagram id="R2lEEEUBdFMjLlhIrx00" name="Page-1">
    <mxGraphModel dx="1311" dy="776" grid="1" gridSize="10" guides="1" tooltips="1" connect="1" arrows="1" fold="1" page="1" pageScale="1" pageWidth="850" pageHeight="1100" math="0" shadow="0" extFonts="Permanent Marker^https://fonts.googleapis.com/css?family=Permanent+Marker">
      <root>
        <mxCell id="0" />
        <mxCell id="1" parent="0" />
        <mxCell id="2zG9b4NdMS7Tn60vnxX5-29" style="rounded=0;orthogonalLoop=1;jettySize=auto;html=1;exitX=1;exitY=0.5;exitDx=0;exitDy=0;entryX=0;entryY=0.5;entryDx=0;entryDy=0;endArrow=none;endFill=0;fontStyle=1;fontSize=17;" parent="1" source="2zG9b4NdMS7Tn60vnxX5-1" target="2zG9b4NdMS7Tn60vnxX5-14" edge="1">
          <mxGeometry relative="1" as="geometry" />
        </mxCell>
        <mxCell id="2zG9b4NdMS7Tn60vnxX5-60" value="1" style="edgeLabel;html=1;align=center;verticalAlign=middle;resizable=0;points=[];fontStyle=1;fontSize=14;" parent="2zG9b4NdMS7Tn60vnxX5-29" vertex="1" connectable="0">
          <mxGeometry x="0.1769" y="2" relative="1" as="geometry">
            <mxPoint as="offset" />
          </mxGeometry>
        </mxCell>
        <mxCell id="2zG9b4NdMS7Tn60vnxX5-30" style="rounded=0;orthogonalLoop=1;jettySize=auto;html=1;exitX=1;exitY=0.5;exitDx=0;exitDy=0;entryX=0;entryY=0.5;entryDx=0;entryDy=0;endArrow=none;endFill=0;fontStyle=1;fontSize=17;" parent="1" source="2zG9b4NdMS7Tn60vnxX5-1" target="2zG9b4NdMS7Tn60vnxX5-15" edge="1">
          <mxGeometry relative="1" as="geometry" />
        </mxCell>
        <mxCell id="2zG9b4NdMS7Tn60vnxX5-61" value="1" style="edgeLabel;html=1;align=center;verticalAlign=middle;resizable=0;points=[];fontStyle=1;fontSize=14;" parent="2zG9b4NdMS7Tn60vnxX5-30" vertex="1" connectable="0">
          <mxGeometry x="0.2454" y="2" relative="1" as="geometry">
            <mxPoint as="offset" />
          </mxGeometry>
        </mxCell>
        <mxCell id="2zG9b4NdMS7Tn60vnxX5-45" style="rounded=0;orthogonalLoop=1;jettySize=auto;html=1;exitX=0;exitY=0.5;exitDx=0;exitDy=0;entryX=1;entryY=0.5;entryDx=0;entryDy=0;endArrow=none;endFill=0;fontStyle=1;fontSize=17;" parent="1" source="2zG9b4NdMS7Tn60vnxX5-1" target="2zG9b4NdMS7Tn60vnxX5-18" edge="1">
          <mxGeometry relative="1" as="geometry" />
        </mxCell>
        <mxCell id="2zG9b4NdMS7Tn60vnxX5-74" value="1" style="edgeLabel;html=1;align=center;verticalAlign=middle;resizable=0;points=[];fontStyle=1;fontSize=14;" parent="2zG9b4NdMS7Tn60vnxX5-45" vertex="1" connectable="0">
          <mxGeometry x="0.1846" y="2" relative="1" as="geometry">
            <mxPoint as="offset" />
          </mxGeometry>
        </mxCell>
        <mxCell id="2zG9b4NdMS7Tn60vnxX5-46" style="rounded=0;orthogonalLoop=1;jettySize=auto;html=1;exitX=0.5;exitY=1;exitDx=0;exitDy=0;endArrow=none;endFill=0;fontStyle=1;fontSize=17;" parent="1" source="2zG9b4NdMS7Tn60vnxX5-1" target="2zG9b4NdMS7Tn60vnxX5-22" edge="1">
          <mxGeometry relative="1" as="geometry" />
        </mxCell>
        <mxCell id="2zG9b4NdMS7Tn60vnxX5-70" value="1" style="edgeLabel;html=1;align=center;verticalAlign=middle;resizable=0;points=[];fontStyle=1;fontSize=14;" parent="2zG9b4NdMS7Tn60vnxX5-46" vertex="1" connectable="0">
          <mxGeometry x="0.1077" relative="1" as="geometry">
            <mxPoint x="-2" y="5" as="offset" />
          </mxGeometry>
        </mxCell>
        <mxCell id="2zG9b4NdMS7Tn60vnxX5-50" style="rounded=0;orthogonalLoop=1;jettySize=auto;html=1;exitX=0.5;exitY=1;exitDx=0;exitDy=0;entryX=0;entryY=0.5;entryDx=0;entryDy=0;endArrow=none;endFill=0;fontStyle=1;fontSize=17;" parent="1" source="2zG9b4NdMS7Tn60vnxX5-1" target="2zG9b4NdMS7Tn60vnxX5-23" edge="1">
          <mxGeometry relative="1" as="geometry" />
        </mxCell>
        <mxCell id="2zG9b4NdMS7Tn60vnxX5-66" value="1" style="edgeLabel;html=1;align=center;verticalAlign=middle;resizable=0;points=[];fontStyle=1;fontSize=14;" parent="2zG9b4NdMS7Tn60vnxX5-50" vertex="1" connectable="0">
          <mxGeometry x="0.2197" relative="1" as="geometry">
            <mxPoint as="offset" />
          </mxGeometry>
        </mxCell>
        <mxCell id="2zG9b4NdMS7Tn60vnxX5-100" style="rounded=0;orthogonalLoop=1;jettySize=auto;html=1;exitX=0.5;exitY=0;exitDx=0;exitDy=0;entryX=1;entryY=0.5;entryDx=0;entryDy=0;endArrow=none;endFill=0;" parent="1" source="2zG9b4NdMS7Tn60vnxX5-1" target="2zG9b4NdMS7Tn60vnxX5-99" edge="1">
          <mxGeometry relative="1" as="geometry" />
        </mxCell>
        <mxCell id="2zG9b4NdMS7Tn60vnxX5-102" value="m" style="edgeLabel;html=1;align=center;verticalAlign=middle;resizable=0;points=[];fontSize=14;fontStyle=1" parent="2zG9b4NdMS7Tn60vnxX5-100" vertex="1" connectable="0">
          <mxGeometry x="0.256" y="2" relative="1" as="geometry">
            <mxPoint as="offset" />
          </mxGeometry>
        </mxCell>
        <mxCell id="2zG9b4NdMS7Tn60vnxX5-101" style="rounded=0;orthogonalLoop=1;jettySize=auto;html=1;exitX=0.5;exitY=0;exitDx=0;exitDy=0;entryX=0.5;entryY=1;entryDx=0;entryDy=0;endArrow=none;endFill=0;" parent="1" source="2zG9b4NdMS7Tn60vnxX5-1" target="2zG9b4NdMS7Tn60vnxX5-99" edge="1">
          <mxGeometry relative="1" as="geometry" />
        </mxCell>
        <mxCell id="2zG9b4NdMS7Tn60vnxX5-103" value="n" style="edgeLabel;html=1;align=center;verticalAlign=middle;resizable=0;points=[];fontSize=14;fontStyle=1" parent="2zG9b4NdMS7Tn60vnxX5-101" vertex="1" connectable="0">
          <mxGeometry x="0.1891" y="3" relative="1" as="geometry">
            <mxPoint as="offset" />
          </mxGeometry>
        </mxCell>
        <mxCell id="2zG9b4NdMS7Tn60vnxX5-1" value="用户&lt;div style=&quot;font-size: 17px;&quot;&gt;user&lt;/div&gt;" style="rounded=0;whiteSpace=wrap;html=1;fillColor=#dae8fc;strokeColor=#6c8ebf;fontStyle=1;fontSize=17;" parent="1" vertex="1">
          <mxGeometry x="420" y="350" width="120" height="60" as="geometry" />
        </mxCell>
        <mxCell id="2zG9b4NdMS7Tn60vnxX5-2" value="任务&lt;div style=&quot;font-size: 17px;&quot;&gt;task&lt;/div&gt;" style="rounded=0;whiteSpace=wrap;html=1;fillColor=#FFCE9F;strokeColor=default;fontStyle=1;fontSize=17;" parent="1" vertex="1">
          <mxGeometry x="820" y="160" width="120" height="60" as="geometry" />
        </mxCell>
        <mxCell id="pJAJ6PA62DNNHjlVkqus-6" style="rounded=0;orthogonalLoop=1;jettySize=auto;html=1;exitX=1;exitY=0.5;exitDx=0;exitDy=0;entryX=0;entryY=0.5;entryDx=0;entryDy=0;endArrow=none;endFill=0;" edge="1" parent="1" source="2zG9b4NdMS7Tn60vnxX5-4" target="pJAJ6PA62DNNHjlVkqus-5">
          <mxGeometry relative="1" as="geometry" />
        </mxCell>
        <mxCell id="pJAJ6PA62DNNHjlVkqus-11" value="n" style="edgeLabel;html=1;align=center;verticalAlign=middle;resizable=0;points=[];fontStyle=1;fontSize=14;" vertex="1" connectable="0" parent="pJAJ6PA62DNNHjlVkqus-6">
          <mxGeometry x="-0.1286" relative="1" as="geometry">
            <mxPoint as="offset" />
          </mxGeometry>
        </mxCell>
        <mxCell id="2zG9b4NdMS7Tn60vnxX5-4" value="标签&lt;div style=&quot;font-size: 17px;&quot;&gt;tag&lt;/div&gt;" style="rounded=0;whiteSpace=wrap;html=1;fillColor=#FFE6CC;strokeColor=default;fontStyle=1;fontSize=17;" parent="1" vertex="1">
          <mxGeometry x="430" y="610" width="120" height="60" as="geometry" />
        </mxCell>
        <mxCell id="2zG9b4NdMS7Tn60vnxX5-26" style="rounded=0;orthogonalLoop=1;jettySize=auto;html=1;exitX=0.5;exitY=1;exitDx=0;exitDy=0;endArrow=none;endFill=0;fontStyle=1;fontSize=17;entryX=0.5;entryY=0;entryDx=0;entryDy=0;" parent="1" source="2zG9b4NdMS7Tn60vnxX5-5" target="2zG9b4NdMS7Tn60vnxX5-13" edge="1">
          <mxGeometry relative="1" as="geometry" />
        </mxCell>
        <mxCell id="2zG9b4NdMS7Tn60vnxX5-97" value="n" style="edgeLabel;html=1;align=center;verticalAlign=middle;resizable=0;points=[];fontStyle=1;fontSize=14;" parent="2zG9b4NdMS7Tn60vnxX5-26" vertex="1" connectable="0">
          <mxGeometry x="0.0536" relative="1" as="geometry">
            <mxPoint as="offset" />
          </mxGeometry>
        </mxCell>
        <mxCell id="2zG9b4NdMS7Tn60vnxX5-5" value="班级&lt;div style=&quot;font-size: 17px;&quot;&gt;class&lt;/div&gt;" style="rounded=0;whiteSpace=wrap;html=1;fillColor=#d5e8d4;strokeColor=default;fontStyle=1;fontSize=17;" parent="1" vertex="1">
          <mxGeometry x="510" y="155" width="120" height="60" as="geometry" />
        </mxCell>
        <mxCell id="2zG9b4NdMS7Tn60vnxX5-6" value="&lt;font style=&quot;font-size: 17px;&quot;&gt;提醒&lt;/font&gt;&lt;div style=&quot;&quot;&gt;&lt;font style=&quot;font-size: 17px;&quot;&gt;message&lt;/font&gt;&lt;/div&gt;" style="rounded=0;whiteSpace=wrap;html=1;fillColor=#fff2cc;strokeColor=default;fontStyle=1;fontSize=17;" parent="1" vertex="1">
          <mxGeometry x="830" y="500" width="120" height="60" as="geometry" />
        </mxCell>
        <mxCell id="2zG9b4NdMS7Tn60vnxX5-34" style="rounded=0;orthogonalLoop=1;jettySize=auto;html=1;exitX=0.5;exitY=0;exitDx=0;exitDy=0;entryX=0.5;entryY=1;entryDx=0;entryDy=0;endArrow=none;endFill=0;fontStyle=1;fontSize=17;" parent="1" source="2zG9b4NdMS7Tn60vnxX5-8" target="2zG9b4NdMS7Tn60vnxX5-16" edge="1">
          <mxGeometry relative="1" as="geometry" />
        </mxCell>
        <mxCell id="pJAJ6PA62DNNHjlVkqus-16" value="n" style="edgeLabel;html=1;align=center;verticalAlign=middle;resizable=0;points=[];fontStyle=1;fontSize=14;" vertex="1" connectable="0" parent="2zG9b4NdMS7Tn60vnxX5-34">
          <mxGeometry x="0.0909" relative="1" as="geometry">
            <mxPoint as="offset" />
          </mxGeometry>
        </mxCell>
        <mxCell id="2zG9b4NdMS7Tn60vnxX5-8" value="任务关系&lt;div style=&quot;&quot;&gt;&lt;font style=&quot;font-size: 12px;&quot;&gt;taskUserRelationship&lt;/font&gt;&lt;/div&gt;" style="rounded=0;whiteSpace=wrap;html=1;fillColor=#CCFFFF;strokeColor=default;fontStyle=1;fontSize=17;" parent="1" vertex="1">
          <mxGeometry x="815" y="350" width="130" height="60" as="geometry" />
        </mxCell>
        <mxCell id="2zG9b4NdMS7Tn60vnxX5-36" style="rounded=0;orthogonalLoop=1;jettySize=auto;html=1;exitX=1;exitY=0.5;exitDx=0;exitDy=0;entryX=0;entryY=0.5;entryDx=0;entryDy=0;endArrow=none;endFill=0;fontStyle=1;fontSize=17;" parent="1" source="2zG9b4NdMS7Tn60vnxX5-9" target="2zG9b4NdMS7Tn60vnxX5-1" edge="1">
          <mxGeometry relative="1" as="geometry" />
        </mxCell>
        <mxCell id="2zG9b4NdMS7Tn60vnxX5-89" value="n" style="edgeLabel;html=1;align=center;verticalAlign=middle;resizable=0;points=[];fontStyle=1;fontSize=14;" parent="2zG9b4NdMS7Tn60vnxX5-36" vertex="1" connectable="0">
          <mxGeometry x="-0.1236" y="1" relative="1" as="geometry">
            <mxPoint as="offset" />
          </mxGeometry>
        </mxCell>
        <mxCell id="2zG9b4NdMS7Tn60vnxX5-38" style="rounded=0;orthogonalLoop=1;jettySize=auto;html=1;exitX=0;exitY=0.5;exitDx=0;exitDy=0;entryX=1;entryY=0.5;entryDx=0;entryDy=0;endArrow=none;endFill=0;fontStyle=1;fontSize=17;" parent="1" source="2zG9b4NdMS7Tn60vnxX5-9" target="2zG9b4NdMS7Tn60vnxX5-81" edge="1">
          <mxGeometry relative="1" as="geometry">
            <mxPoint x="200" y="380" as="targetPoint" />
          </mxGeometry>
        </mxCell>
        <mxCell id="2zG9b4NdMS7Tn60vnxX5-90" value="1" style="edgeLabel;html=1;align=center;verticalAlign=middle;resizable=0;points=[];fontStyle=1;fontSize=14;" parent="2zG9b4NdMS7Tn60vnxX5-38" vertex="1" connectable="0">
          <mxGeometry x="0.0491" y="2" relative="1" as="geometry">
            <mxPoint y="-2" as="offset" />
          </mxGeometry>
        </mxCell>
        <mxCell id="2zG9b4NdMS7Tn60vnxX5-9" value="参加" style="rhombus;whiteSpace=wrap;html=1;fillColor=#F8CECC;strokeColor=default;fontStyle=1;fontSize=17;" parent="1" vertex="1">
          <mxGeometry x="245" y="455" width="100" height="50" as="geometry" />
        </mxCell>
        <mxCell id="2zG9b4NdMS7Tn60vnxX5-37" style="rounded=0;orthogonalLoop=1;jettySize=auto;html=1;exitX=1;exitY=0.5;exitDx=0;exitDy=0;entryX=0;entryY=0.5;entryDx=0;entryDy=0;endArrow=none;endFill=0;fontStyle=1;fontSize=17;" parent="1" source="2zG9b4NdMS7Tn60vnxX5-11" target="2zG9b4NdMS7Tn60vnxX5-1" edge="1">
          <mxGeometry relative="1" as="geometry" />
        </mxCell>
        <mxCell id="2zG9b4NdMS7Tn60vnxX5-92" value="n" style="edgeLabel;html=1;align=center;verticalAlign=middle;resizable=0;points=[];fontStyle=1;fontSize=14;" parent="2zG9b4NdMS7Tn60vnxX5-37" vertex="1" connectable="0">
          <mxGeometry x="-0.2526" y="-2" relative="1" as="geometry">
            <mxPoint y="-6" as="offset" />
          </mxGeometry>
        </mxCell>
        <mxCell id="2zG9b4NdMS7Tn60vnxX5-39" style="rounded=0;orthogonalLoop=1;jettySize=auto;html=1;exitX=0;exitY=0.5;exitDx=0;exitDy=0;entryX=1;entryY=0.5;entryDx=0;entryDy=0;endArrow=none;endFill=0;fontStyle=1;fontSize=17;" parent="1" source="2zG9b4NdMS7Tn60vnxX5-11" target="2zG9b4NdMS7Tn60vnxX5-81" edge="1">
          <mxGeometry relative="1" as="geometry">
            <mxPoint x="200" y="380" as="targetPoint" />
          </mxGeometry>
        </mxCell>
        <mxCell id="2zG9b4NdMS7Tn60vnxX5-91" value="1" style="edgeLabel;html=1;align=center;verticalAlign=middle;resizable=0;points=[];fontStyle=1;fontSize=14;" parent="2zG9b4NdMS7Tn60vnxX5-39" vertex="1" connectable="0">
          <mxGeometry x="0.2761" y="-2" relative="1" as="geometry">
            <mxPoint y="7" as="offset" />
          </mxGeometry>
        </mxCell>
        <mxCell id="2zG9b4NdMS7Tn60vnxX5-11" value="创建" style="rhombus;whiteSpace=wrap;html=1;fillColor=#F8CECC;strokeColor=default;fontStyle=1;fontSize=17;" parent="1" vertex="1">
          <mxGeometry x="245" y="555" width="100" height="50" as="geometry" />
        </mxCell>
        <mxCell id="2zG9b4NdMS7Tn60vnxX5-25" style="rounded=0;orthogonalLoop=1;jettySize=auto;html=1;exitX=0.5;exitY=0;exitDx=0;exitDy=0;entryX=0.5;entryY=1;entryDx=0;entryDy=0;startArrow=none;startFill=0;endArrow=none;endFill=0;fontStyle=1;fontSize=17;" parent="1" source="2zG9b4NdMS7Tn60vnxX5-12" target="2zG9b4NdMS7Tn60vnxX5-5" edge="1">
          <mxGeometry relative="1" as="geometry" />
        </mxCell>
        <mxCell id="2zG9b4NdMS7Tn60vnxX5-96" value="n" style="edgeLabel;html=1;align=center;verticalAlign=middle;resizable=0;points=[];fontStyle=1;fontSize=14;" parent="2zG9b4NdMS7Tn60vnxX5-25" vertex="1" connectable="0">
          <mxGeometry x="0.0224" y="3" relative="1" as="geometry">
            <mxPoint as="offset" />
          </mxGeometry>
        </mxCell>
        <mxCell id="2zG9b4NdMS7Tn60vnxX5-27" style="rounded=0;orthogonalLoop=1;jettySize=auto;html=1;exitX=0.5;exitY=1;exitDx=0;exitDy=0;entryX=0.5;entryY=0;entryDx=0;entryDy=0;endArrow=none;endFill=0;fontStyle=1;fontSize=17;" parent="1" source="2zG9b4NdMS7Tn60vnxX5-12" target="2zG9b4NdMS7Tn60vnxX5-1" edge="1">
          <mxGeometry relative="1" as="geometry" />
        </mxCell>
        <mxCell id="2zG9b4NdMS7Tn60vnxX5-95" value="m" style="edgeLabel;html=1;align=center;verticalAlign=middle;resizable=0;points=[];fontStyle=1;fontSize=14;" parent="2zG9b4NdMS7Tn60vnxX5-27" vertex="1" connectable="0">
          <mxGeometry x="-0.0502" relative="1" as="geometry">
            <mxPoint as="offset" />
          </mxGeometry>
        </mxCell>
        <mxCell id="2zG9b4NdMS7Tn60vnxX5-12" value="管理" style="rhombus;whiteSpace=wrap;html=1;fillColor=#d5e8d4;strokeColor=default;fontStyle=1;fontSize=17;" parent="1" vertex="1">
          <mxGeometry x="430" y="240" width="100" height="50" as="geometry" />
        </mxCell>
        <mxCell id="2zG9b4NdMS7Tn60vnxX5-28" style="rounded=0;orthogonalLoop=1;jettySize=auto;html=1;exitX=0.5;exitY=1;exitDx=0;exitDy=0;entryX=0.5;entryY=0;entryDx=0;entryDy=0;endArrow=none;endFill=0;fontStyle=1;fontSize=17;" parent="1" source="2zG9b4NdMS7Tn60vnxX5-13" target="2zG9b4NdMS7Tn60vnxX5-1" edge="1">
          <mxGeometry relative="1" as="geometry" />
        </mxCell>
        <mxCell id="2zG9b4NdMS7Tn60vnxX5-98" value="n" style="edgeLabel;html=1;align=center;verticalAlign=middle;resizable=0;points=[];fontStyle=1;fontSize=14;" parent="2zG9b4NdMS7Tn60vnxX5-28" vertex="1" connectable="0">
          <mxGeometry x="-0.0485" relative="1" as="geometry">
            <mxPoint as="offset" />
          </mxGeometry>
        </mxCell>
        <mxCell id="pJAJ6PA62DNNHjlVkqus-8" value="m" style="edgeLabel;html=1;align=center;verticalAlign=middle;resizable=0;points=[];fontSize=14;fontStyle=1" vertex="1" connectable="0" parent="2zG9b4NdMS7Tn60vnxX5-28">
          <mxGeometry x="-0.0516" y="2" relative="1" as="geometry">
            <mxPoint as="offset" />
          </mxGeometry>
        </mxCell>
        <mxCell id="2zG9b4NdMS7Tn60vnxX5-13" value="属于" style="rhombus;whiteSpace=wrap;html=1;fillColor=#d5e8d4;strokeColor=default;fontStyle=1;fontSize=17;" parent="1" vertex="1">
          <mxGeometry x="630" y="240" width="100" height="50" as="geometry" />
        </mxCell>
        <mxCell id="2zG9b4NdMS7Tn60vnxX5-32" style="rounded=0;orthogonalLoop=1;jettySize=auto;html=1;exitX=1;exitY=0.5;exitDx=0;exitDy=0;entryX=0;entryY=0.5;entryDx=0;entryDy=0;endArrow=none;endFill=0;fontStyle=1;fontSize=17;" parent="1" source="2zG9b4NdMS7Tn60vnxX5-14" target="2zG9b4NdMS7Tn60vnxX5-8" edge="1">
          <mxGeometry relative="1" as="geometry" />
        </mxCell>
        <mxCell id="2zG9b4NdMS7Tn60vnxX5-62" value="n" style="edgeLabel;html=1;align=center;verticalAlign=middle;resizable=0;points=[];fontStyle=1;fontSize=14;" parent="2zG9b4NdMS7Tn60vnxX5-32" vertex="1" connectable="0">
          <mxGeometry x="-0.2369" y="-1" relative="1" as="geometry">
            <mxPoint as="offset" />
          </mxGeometry>
        </mxCell>
        <mxCell id="2zG9b4NdMS7Tn60vnxX5-14" value="完成" style="rhombus;whiteSpace=wrap;html=1;fillColor=#CCFFFF;strokeColor=default;fontStyle=1;fontSize=17;" parent="1" vertex="1">
          <mxGeometry x="630" y="305" width="100" height="50" as="geometry" />
        </mxCell>
        <mxCell id="2zG9b4NdMS7Tn60vnxX5-33" style="rounded=0;orthogonalLoop=1;jettySize=auto;html=1;exitX=1;exitY=0.5;exitDx=0;exitDy=0;entryX=0;entryY=0.5;entryDx=0;entryDy=0;endArrow=none;endFill=0;fontStyle=1;fontSize=17;" parent="1" source="2zG9b4NdMS7Tn60vnxX5-15" target="2zG9b4NdMS7Tn60vnxX5-8" edge="1">
          <mxGeometry relative="1" as="geometry" />
        </mxCell>
        <mxCell id="2zG9b4NdMS7Tn60vnxX5-63" value="n" style="edgeLabel;html=1;align=center;verticalAlign=middle;resizable=0;points=[];fontStyle=1;fontSize=14;" parent="2zG9b4NdMS7Tn60vnxX5-33" vertex="1" connectable="0">
          <mxGeometry x="-0.1794" y="-1" relative="1" as="geometry">
            <mxPoint as="offset" />
          </mxGeometry>
        </mxCell>
        <mxCell id="2zG9b4NdMS7Tn60vnxX5-15" value="创建" style="rhombus;whiteSpace=wrap;html=1;fillColor=#CCFFFF;strokeColor=default;fontStyle=1;fontSize=17;" parent="1" vertex="1">
          <mxGeometry x="630" y="405" width="100" height="50" as="geometry" />
        </mxCell>
        <mxCell id="2zG9b4NdMS7Tn60vnxX5-35" style="rounded=0;orthogonalLoop=1;jettySize=auto;html=1;exitX=0.5;exitY=0;exitDx=0;exitDy=0;entryX=0.5;entryY=1;entryDx=0;entryDy=0;endArrow=none;endFill=0;fontStyle=1;fontSize=17;" parent="1" source="2zG9b4NdMS7Tn60vnxX5-16" target="2zG9b4NdMS7Tn60vnxX5-2" edge="1">
          <mxGeometry relative="1" as="geometry" />
        </mxCell>
        <mxCell id="pJAJ6PA62DNNHjlVkqus-15" value="1" style="edgeLabel;html=1;align=center;verticalAlign=middle;resizable=0;points=[];fontStyle=1;fontSize=14;" vertex="1" connectable="0" parent="2zG9b4NdMS7Tn60vnxX5-35">
          <mxGeometry x="0.0409" y="-1" relative="1" as="geometry">
            <mxPoint as="offset" />
          </mxGeometry>
        </mxCell>
        <mxCell id="2zG9b4NdMS7Tn60vnxX5-16" value="映射" style="rhombus;whiteSpace=wrap;html=1;fillColor=#FFCE9F;strokeColor=default;fontStyle=1;fontSize=17;" parent="1" vertex="1">
          <mxGeometry x="830" y="260" width="100" height="50" as="geometry" />
        </mxCell>
        <mxCell id="2zG9b4NdMS7Tn60vnxX5-40" style="rounded=0;orthogonalLoop=1;jettySize=auto;html=1;exitX=0.5;exitY=1;exitDx=0;exitDy=0;entryX=0.5;entryY=0;entryDx=0;entryDy=0;endArrow=none;endFill=0;fontStyle=1;fontSize=17;" parent="1" source="2zG9b4NdMS7Tn60vnxX5-17" target="2zG9b4NdMS7Tn60vnxX5-81" edge="1">
          <mxGeometry relative="1" as="geometry">
            <mxPoint x="140" y="350" as="targetPoint" />
          </mxGeometry>
        </mxCell>
        <mxCell id="2zG9b4NdMS7Tn60vnxX5-88" value="n" style="edgeLabel;html=1;align=center;verticalAlign=middle;resizable=0;points=[];fontStyle=1;fontSize=14;" parent="2zG9b4NdMS7Tn60vnxX5-40" vertex="1" connectable="0">
          <mxGeometry x="-0.2207" relative="1" as="geometry">
            <mxPoint as="offset" />
          </mxGeometry>
        </mxCell>
        <mxCell id="2zG9b4NdMS7Tn60vnxX5-41" style="rounded=0;orthogonalLoop=1;jettySize=auto;html=1;exitX=0.5;exitY=0;exitDx=0;exitDy=0;endArrow=none;endFill=0;fontStyle=1;fontSize=17;entryX=0.5;entryY=1;entryDx=0;entryDy=0;" parent="1" source="2zG9b4NdMS7Tn60vnxX5-17" target="2zG9b4NdMS7Tn60vnxX5-80" edge="1">
          <mxGeometry relative="1" as="geometry">
            <mxPoint x="140" y="240" as="targetPoint" />
          </mxGeometry>
        </mxCell>
        <mxCell id="2zG9b4NdMS7Tn60vnxX5-87" value="1" style="edgeLabel;html=1;align=center;verticalAlign=middle;resizable=0;points=[];fontStyle=1;fontSize=14;" parent="2zG9b4NdMS7Tn60vnxX5-41" vertex="1" connectable="0">
          <mxGeometry x="-0.1173" relative="1" as="geometry">
            <mxPoint as="offset" />
          </mxGeometry>
        </mxCell>
        <mxCell id="2zG9b4NdMS7Tn60vnxX5-17" value="映射" style="rhombus;whiteSpace=wrap;html=1;fillColor=#E6FFCC;strokeColor=default;fontStyle=1;fontSize=17;" parent="1" vertex="1">
          <mxGeometry x="85" y="430" width="100" height="50" as="geometry" />
        </mxCell>
        <mxCell id="2zG9b4NdMS7Tn60vnxX5-18" value="发布" style="rhombus;whiteSpace=wrap;html=1;fillColor=#E5CCFF;strokeColor=default;fontStyle=1;fontSize=17;" parent="1" vertex="1">
          <mxGeometry x="260" y="355" width="100" height="50" as="geometry" />
        </mxCell>
        <mxCell id="2zG9b4NdMS7Tn60vnxX5-44" style="rounded=0;orthogonalLoop=1;jettySize=auto;html=1;exitX=1;exitY=0.5;exitDx=0;exitDy=0;entryX=0;entryY=0.5;entryDx=0;entryDy=0;endArrow=none;endFill=0;fontStyle=1;fontSize=17;" parent="1" source="2zG9b4NdMS7Tn60vnxX5-19" target="2zG9b4NdMS7Tn60vnxX5-18" edge="1">
          <mxGeometry relative="1" as="geometry">
            <mxPoint x="245" y="202.5" as="targetPoint" />
          </mxGeometry>
        </mxCell>
        <mxCell id="2zG9b4NdMS7Tn60vnxX5-75" value="n" style="edgeLabel;html=1;align=center;verticalAlign=middle;resizable=0;points=[];fontStyle=1;fontSize=14;" parent="2zG9b4NdMS7Tn60vnxX5-44" vertex="1" connectable="0">
          <mxGeometry x="0.0104" y="2" relative="1" as="geometry">
            <mxPoint as="offset" />
          </mxGeometry>
        </mxCell>
        <mxCell id="2zG9b4NdMS7Tn60vnxX5-77" style="rounded=0;orthogonalLoop=1;jettySize=auto;html=1;exitX=1;exitY=0.5;exitDx=0;exitDy=0;entryX=0.5;entryY=1;entryDx=0;entryDy=0;endArrow=none;endFill=0;" parent="1" source="2zG9b4NdMS7Tn60vnxX5-19" target="2zG9b4NdMS7Tn60vnxX5-76" edge="1">
          <mxGeometry relative="1" as="geometry" />
        </mxCell>
        <mxCell id="2zG9b4NdMS7Tn60vnxX5-82" value="n" style="edgeLabel;html=1;align=center;verticalAlign=middle;resizable=0;points=[];fontStyle=1;fontSize=14;" parent="2zG9b4NdMS7Tn60vnxX5-77" vertex="1" connectable="0">
          <mxGeometry x="-0.1964" y="-1" relative="1" as="geometry">
            <mxPoint x="8" y="1" as="offset" />
          </mxGeometry>
        </mxCell>
        <mxCell id="2zG9b4NdMS7Tn60vnxX5-78" style="rounded=0;orthogonalLoop=1;jettySize=auto;html=1;exitX=1;exitY=0.5;exitDx=0;exitDy=0;entryX=0.5;entryY=0;entryDx=0;entryDy=0;endArrow=none;endFill=0;" parent="1" source="2zG9b4NdMS7Tn60vnxX5-19" target="2zG9b4NdMS7Tn60vnxX5-76" edge="1">
          <mxGeometry relative="1" as="geometry" />
        </mxCell>
        <mxCell id="2zG9b4NdMS7Tn60vnxX5-83" value="1" style="edgeLabel;html=1;align=center;verticalAlign=middle;resizable=0;points=[];fontStyle=1;fontSize=14;" parent="2zG9b4NdMS7Tn60vnxX5-78" vertex="1" connectable="0">
          <mxGeometry x="-0.067" y="-1" relative="1" as="geometry">
            <mxPoint as="offset" />
          </mxGeometry>
        </mxCell>
        <mxCell id="2zG9b4NdMS7Tn60vnxX5-19" value="评论&lt;div style=&quot;font-size: 17px;&quot;&gt;comment&lt;/div&gt;" style="rounded=0;whiteSpace=wrap;html=1;fillColor=#E5CCFF;strokeColor=default;fontStyle=1;fontSize=17;" parent="1" vertex="1">
          <mxGeometry x="75" y="160" width="120" height="60" as="geometry" />
        </mxCell>
        <mxCell id="2zG9b4NdMS7Tn60vnxX5-43" style="rounded=0;orthogonalLoop=1;jettySize=auto;html=1;exitX=0.5;exitY=0;exitDx=0;exitDy=0;entryX=0.5;entryY=1;entryDx=0;entryDy=0;endArrow=none;endFill=0;fontStyle=1;fontSize=17;" parent="1" source="2zG9b4NdMS7Tn60vnxX5-20" target="2zG9b4NdMS7Tn60vnxX5-19" edge="1">
          <mxGeometry relative="1" as="geometry" />
        </mxCell>
        <mxCell id="pJAJ6PA62DNNHjlVkqus-14" value="n" style="edgeLabel;html=1;align=center;verticalAlign=middle;resizable=0;points=[];fontSize=14;fontStyle=1" vertex="1" connectable="0" parent="2zG9b4NdMS7Tn60vnxX5-43">
          <mxGeometry x="0.1122" relative="1" as="geometry">
            <mxPoint y="2" as="offset" />
          </mxGeometry>
        </mxCell>
        <mxCell id="2zG9b4NdMS7Tn60vnxX5-84" value="1" style="edgeStyle=orthogonalEdgeStyle;rounded=0;orthogonalLoop=1;jettySize=auto;html=1;exitX=0.5;exitY=1;exitDx=0;exitDy=0;entryX=0.5;entryY=0;entryDx=0;entryDy=0;endArrow=none;endFill=0;fontSize=14;fontStyle=1" parent="1" source="2zG9b4NdMS7Tn60vnxX5-20" target="2zG9b4NdMS7Tn60vnxX5-80" edge="1">
          <mxGeometry relative="1" as="geometry" />
        </mxCell>
        <mxCell id="2zG9b4NdMS7Tn60vnxX5-20" value="挂载" style="rhombus;whiteSpace=wrap;html=1;fillColor=#E5CCFF;strokeColor=default;fontStyle=1;fontSize=17;" parent="1" vertex="1">
          <mxGeometry x="85" y="260" width="100" height="50" as="geometry" />
        </mxCell>
        <mxCell id="2zG9b4NdMS7Tn60vnxX5-47" style="rounded=0;orthogonalLoop=1;jettySize=auto;html=1;exitX=0.5;exitY=0;exitDx=0;exitDy=0;entryX=0.5;entryY=1;entryDx=0;entryDy=0;endArrow=none;endFill=0;fontStyle=1;fontSize=17;" parent="1" source="2zG9b4NdMS7Tn60vnxX5-21" target="2zG9b4NdMS7Tn60vnxX5-1" edge="1">
          <mxGeometry relative="1" as="geometry" />
        </mxCell>
        <mxCell id="2zG9b4NdMS7Tn60vnxX5-72" value="1" style="edgeLabel;html=1;align=center;verticalAlign=middle;resizable=0;points=[];fontStyle=1;fontSize=14;" parent="2zG9b4NdMS7Tn60vnxX5-47" vertex="1" connectable="0">
          <mxGeometry x="-0.3692" y="2" relative="1" as="geometry">
            <mxPoint x="1" y="4" as="offset" />
          </mxGeometry>
        </mxCell>
        <mxCell id="2zG9b4NdMS7Tn60vnxX5-49" style="rounded=0;orthogonalLoop=1;jettySize=auto;html=1;exitX=0.5;exitY=1;exitDx=0;exitDy=0;entryX=0.5;entryY=0;entryDx=0;entryDy=0;endArrow=none;endFill=0;fontStyle=1;fontSize=17;" parent="1" source="2zG9b4NdMS7Tn60vnxX5-21" target="2zG9b4NdMS7Tn60vnxX5-4" edge="1">
          <mxGeometry relative="1" as="geometry" />
        </mxCell>
        <mxCell id="2zG9b4NdMS7Tn60vnxX5-73" value="n" style="edgeLabel;html=1;align=center;verticalAlign=middle;resizable=0;points=[];fontStyle=1;fontSize=14;" parent="2zG9b4NdMS7Tn60vnxX5-49" vertex="1" connectable="0">
          <mxGeometry x="0.0857" relative="1" as="geometry">
            <mxPoint as="offset" />
          </mxGeometry>
        </mxCell>
        <mxCell id="2zG9b4NdMS7Tn60vnxX5-21" value="创建" style="rhombus;whiteSpace=wrap;html=1;fillColor=#FFE6CC;strokeColor=default;fontStyle=1;fontSize=17;" parent="1" vertex="1">
          <mxGeometry x="490" y="505" width="100" height="50" as="geometry" />
        </mxCell>
        <mxCell id="2zG9b4NdMS7Tn60vnxX5-48" style="rounded=0;orthogonalLoop=1;jettySize=auto;html=1;exitX=0.5;exitY=1;exitDx=0;exitDy=0;endArrow=none;endFill=0;fontStyle=1;fontSize=17;" parent="1" source="2zG9b4NdMS7Tn60vnxX5-22" target="2zG9b4NdMS7Tn60vnxX5-4" edge="1">
          <mxGeometry relative="1" as="geometry" />
        </mxCell>
        <mxCell id="2zG9b4NdMS7Tn60vnxX5-71" value="n" style="edgeLabel;html=1;align=center;verticalAlign=middle;resizable=0;points=[];fontStyle=1;fontSize=14;" parent="2zG9b4NdMS7Tn60vnxX5-48" vertex="1" connectable="0">
          <mxGeometry x="0.0104" y="2" relative="1" as="geometry">
            <mxPoint as="offset" />
          </mxGeometry>
        </mxCell>
        <mxCell id="2zG9b4NdMS7Tn60vnxX5-22" value="操作" style="rhombus;whiteSpace=wrap;html=1;fillColor=#FFE6CC;strokeColor=default;fontStyle=1;fontSize=17;" parent="1" vertex="1">
          <mxGeometry x="370" y="505" width="100" height="50" as="geometry" />
        </mxCell>
        <mxCell id="2zG9b4NdMS7Tn60vnxX5-52" style="rounded=0;orthogonalLoop=1;jettySize=auto;html=1;exitX=1;exitY=0.5;exitDx=0;exitDy=0;entryX=0;entryY=0.5;entryDx=0;entryDy=0;endArrow=none;endFill=0;fontStyle=1;fontSize=17;" parent="1" source="2zG9b4NdMS7Tn60vnxX5-23" target="2zG9b4NdMS7Tn60vnxX5-6" edge="1">
          <mxGeometry relative="1" as="geometry" />
        </mxCell>
        <mxCell id="2zG9b4NdMS7Tn60vnxX5-67" value="n" style="edgeLabel;html=1;align=center;verticalAlign=middle;resizable=0;points=[];fontStyle=1;fontSize=14;" parent="2zG9b4NdMS7Tn60vnxX5-52" vertex="1" connectable="0">
          <mxGeometry x="-0.2363" y="1" relative="1" as="geometry">
            <mxPoint as="offset" />
          </mxGeometry>
        </mxCell>
        <mxCell id="2zG9b4NdMS7Tn60vnxX5-23" value="发送" style="rhombus;whiteSpace=wrap;html=1;fillColor=#fff2cc;strokeColor=default;fontStyle=1;fontSize=17;" parent="1" vertex="1">
          <mxGeometry x="630" y="470" width="100" height="50" as="geometry" />
        </mxCell>
        <mxCell id="2zG9b4NdMS7Tn60vnxX5-51" style="rounded=0;orthogonalLoop=1;jettySize=auto;html=1;exitX=0;exitY=0.5;exitDx=0;exitDy=0;entryX=0.5;entryY=1;entryDx=0;entryDy=0;endArrow=none;endFill=0;fontStyle=1;fontSize=17;" parent="1" source="2zG9b4NdMS7Tn60vnxX5-24" target="2zG9b4NdMS7Tn60vnxX5-1" edge="1">
          <mxGeometry relative="1" as="geometry" />
        </mxCell>
        <mxCell id="2zG9b4NdMS7Tn60vnxX5-68" value="1" style="edgeLabel;html=1;align=center;verticalAlign=middle;resizable=0;points=[];fontStyle=1;fontSize=14;" parent="2zG9b4NdMS7Tn60vnxX5-51" vertex="1" connectable="0">
          <mxGeometry x="-0.1658" y="-1" relative="1" as="geometry">
            <mxPoint as="offset" />
          </mxGeometry>
        </mxCell>
        <mxCell id="2zG9b4NdMS7Tn60vnxX5-53" style="rounded=0;orthogonalLoop=1;jettySize=auto;html=1;exitX=1;exitY=0.5;exitDx=0;exitDy=0;entryX=0;entryY=0.5;entryDx=0;entryDy=0;endArrow=none;endFill=0;fontStyle=1;fontSize=17;" parent="1" source="2zG9b4NdMS7Tn60vnxX5-24" target="2zG9b4NdMS7Tn60vnxX5-6" edge="1">
          <mxGeometry relative="1" as="geometry" />
        </mxCell>
        <mxCell id="2zG9b4NdMS7Tn60vnxX5-69" value="n" style="edgeLabel;html=1;align=center;verticalAlign=middle;resizable=0;points=[];fontStyle=1;fontSize=14;" parent="2zG9b4NdMS7Tn60vnxX5-53" vertex="1" connectable="0">
          <mxGeometry x="-0.4185" relative="1" as="geometry">
            <mxPoint as="offset" />
          </mxGeometry>
        </mxCell>
        <mxCell id="2zG9b4NdMS7Tn60vnxX5-24" value="阅读" style="rhombus;whiteSpace=wrap;html=1;fillColor=#fff2cc;strokeColor=default;fontStyle=1;fontSize=17;" parent="1" vertex="1">
          <mxGeometry x="630" y="540" width="100" height="50" as="geometry" />
        </mxCell>
        <mxCell id="2zG9b4NdMS7Tn60vnxX5-59" style="edgeStyle=orthogonalEdgeStyle;rounded=0;orthogonalLoop=1;jettySize=auto;html=1;exitX=0.5;exitY=1;exitDx=0;exitDy=0;fontStyle=1;fontSize=17;" parent="1" source="2zG9b4NdMS7Tn60vnxX5-24" target="2zG9b4NdMS7Tn60vnxX5-24" edge="1">
          <mxGeometry relative="1" as="geometry" />
        </mxCell>
        <mxCell id="2zG9b4NdMS7Tn60vnxX5-76" value="跟帖" style="rhombus;whiteSpace=wrap;html=1;fillColor=#E5CCFF;strokeColor=default;fontStyle=1;fontSize=17;" parent="1" vertex="1">
          <mxGeometry x="260" y="165" width="100" height="50" as="geometry" />
        </mxCell>
        <mxCell id="2zG9b4NdMS7Tn60vnxX5-80" value="日程&lt;div style=&quot;font-size: 17px;&quot;&gt;activity&lt;/div&gt;" style="rounded=0;whiteSpace=wrap;html=1;fillColor=#E6FFCC;strokeColor=default;fontStyle=1;fontSize=17;" parent="1" vertex="1">
          <mxGeometry x="75" y="350" width="120" height="60" as="geometry" />
        </mxCell>
        <mxCell id="pJAJ6PA62DNNHjlVkqus-3" style="rounded=0;orthogonalLoop=1;jettySize=auto;html=1;exitX=0.5;exitY=1;exitDx=0;exitDy=0;entryX=0;entryY=0.5;entryDx=0;entryDy=0;endArrow=none;endFill=0;" edge="1" parent="1" source="2zG9b4NdMS7Tn60vnxX5-81" target="pJAJ6PA62DNNHjlVkqus-1">
          <mxGeometry relative="1" as="geometry" />
        </mxCell>
        <mxCell id="pJAJ6PA62DNNHjlVkqus-13" value="m" style="edgeLabel;html=1;align=center;verticalAlign=middle;resizable=0;points=[];fontStyle=1;fontSize=14;" vertex="1" connectable="0" parent="pJAJ6PA62DNNHjlVkqus-3">
          <mxGeometry x="0.0022" y="-2" relative="1" as="geometry">
            <mxPoint as="offset" />
          </mxGeometry>
        </mxCell>
        <mxCell id="2zG9b4NdMS7Tn60vnxX5-81" value="日程关系&lt;div style=&quot;&quot;&gt;&lt;font style=&quot;font-size: 12px;&quot;&gt;activityUserRelationship&lt;/font&gt;&lt;/div&gt;" style="rounded=0;whiteSpace=wrap;html=1;fillColor=#F8CECC;strokeColor=default;fontStyle=1;fontSize=17;" parent="1" vertex="1">
          <mxGeometry x="50" y="500" width="170" height="60" as="geometry" />
        </mxCell>
        <mxCell id="2zG9b4NdMS7Tn60vnxX5-99" value="管理" style="rhombus;whiteSpace=wrap;html=1;fillColor=#dae8fc;strokeColor=default;fontStyle=1;fontSize=17;gradientColor=none;" parent="1" vertex="1">
          <mxGeometry x="260" y="240" width="100" height="50" as="geometry" />
        </mxCell>
        <mxCell id="pJAJ6PA62DNNHjlVkqus-2" style="rounded=0;orthogonalLoop=1;jettySize=auto;html=1;exitX=1;exitY=0.5;exitDx=0;exitDy=0;entryX=0;entryY=0.5;entryDx=0;entryDy=0;endArrow=none;endFill=0;" edge="1" parent="1" source="pJAJ6PA62DNNHjlVkqus-1" target="2zG9b4NdMS7Tn60vnxX5-4">
          <mxGeometry relative="1" as="geometry" />
        </mxCell>
        <mxCell id="pJAJ6PA62DNNHjlVkqus-12" value="n" style="edgeLabel;html=1;align=center;verticalAlign=middle;resizable=0;points=[];fontStyle=1;fontSize=14;" vertex="1" connectable="0" parent="pJAJ6PA62DNNHjlVkqus-2">
          <mxGeometry x="-0.0622" y="1" relative="1" as="geometry">
            <mxPoint as="offset" />
          </mxGeometry>
        </mxCell>
        <mxCell id="pJAJ6PA62DNNHjlVkqus-1" value="设置" style="rhombus;whiteSpace=wrap;html=1;fillColor=#ffe6cc;strokeColor=#000000;fontStyle=1;fontSize=17;" vertex="1" parent="1">
          <mxGeometry x="245" y="615" width="100" height="50" as="geometry" />
        </mxCell>
        <mxCell id="pJAJ6PA62DNNHjlVkqus-7" style="rounded=0;orthogonalLoop=1;jettySize=auto;html=1;exitX=1;exitY=0.5;exitDx=0;exitDy=0;endArrow=none;endFill=0;entryX=0.5;entryY=1;entryDx=0;entryDy=0;" edge="1" parent="1" source="pJAJ6PA62DNNHjlVkqus-5" target="2zG9b4NdMS7Tn60vnxX5-8">
          <mxGeometry relative="1" as="geometry" />
        </mxCell>
        <mxCell id="pJAJ6PA62DNNHjlVkqus-10" value="m" style="edgeLabel;html=1;align=center;verticalAlign=middle;resizable=0;points=[];fontStyle=1;fontSize=14;" vertex="1" connectable="0" parent="pJAJ6PA62DNNHjlVkqus-7">
          <mxGeometry x="0.3181" y="2" relative="1" as="geometry">
            <mxPoint x="13" y="-17" as="offset" />
          </mxGeometry>
        </mxCell>
        <mxCell id="pJAJ6PA62DNNHjlVkqus-5" value="设置" style="rhombus;whiteSpace=wrap;html=1;fillColor=#ffe6cc;strokeColor=#000000;fontStyle=1;fontSize=17;" vertex="1" parent="1">
          <mxGeometry x="630" y="615" width="100" height="50" as="geometry" />
        </mxCell>
      </root>
    </mxGraphModel>
  </diagram>
</mxfile>
